<?xml version="1.0" encoding="utf-8"?>
<!-- Generator: Adobe Illustrator 15.0.0, SVG Export Plug-In . SVG Version: 6.00 Build 0)  -->
<!DOCTYPE svg PUBLIC "-//W3C//DTD SVG 1.1//EN" "http://www.w3.org/Graphics/SVG/1.1/DTD/svg11.dtd">
<svg version="1.1" id="Layer_1" xmlns="http://www.w3.org/2000/svg" xmlns:xlink="http://www.w3.org/1999/xlink" x="0px" y="0px"
	 width="30px" height="29.365px" viewBox="15 14.683 30 29.365" enable-background="new 15 14.683 30 29.365" xml:space="preserve">
<g>
	<g>
		<path fill="#FFFFFF" d="M26.031,14.683c0.21,0.051,0.424,0.093,0.632,0.156c1.717,0.521,2.77,1.703,3.342,3.362
			c0.032,0.093,0.06,0.188,0.094,0.299c1.196,0,2.388,0,3.58,0c2.077,0,4.153-0.016,6.23,0c2.816,0.021,4.656,2.139,5.036,4.951
			c0.029,0.216,0.052,0.435,0.053,0.652c0.002,5.793,0.002,10.423,0,16.217c0,0.668-0.118,1.307-0.533,1.854
			c-0.468,0.618-1.138,0.847-1.871,0.904c-0.453,0.036-0.911,0.007-1.389,0.007c0-0.943,0-1.881,0-2.84c0.301,0,0.595,0,0.9,0
			c0.015-0.064,0.034-0.111,0.033-0.156c-0.037-1.509,0.008-3.025-0.136-4.524c-0.202-2.114-0.428-4.027-1.988-5.548
			c-1.297-1.261-2.881-1.909-4.657-2.102c-1.642-0.179-3.272-0.067-4.869,0.371c-1.988,0.546-3.32,1.876-4.259,3.647
			c-0.236,0.445-0.43,0.914-0.625,1.38c-0.078,0.187-0.179,0.271-0.384,0.305c-2.12,0.348-4.005,1.169-5.52,2.744
			c-1.04,1.081-1.015,2.357-1.188,3.87c0.31,0,0.604,0,0.92,0c0,0.958,0,1.896,0,2.859c-0.729-0.01-1.453,0.07-2.157-0.16
			c-0.901-0.295-1.392-0.94-1.573-1.849c-0.018-0.086-0.045-0.169-0.068-0.254c0-0.417,0-0.835,0-1.252
			c0.02-0.055,0.042-0.108,0.058-0.164c0.173-0.598,0.266-1.232,0.529-1.787c1.547-3.264,3.637-5.031,7.033-5.908
			c0.234-0.06,0.364-0.149,0.46-0.378c0.773-1.83,1.901-3.394,3.566-4.514c2.522-1.698,5.348-2.098,8.29-1.752
			c2.778,0.326,4.529,1.653,6.36,3.759c0.052,0.061,0.115,0.11,0.206,0.194c0-2.031,0.003-2.844-0.004-4.821
			c0-0.216-0.032-0.437-0.084-0.647c-0.324-1.317-0.917-2.193-2.299-2.197c-2.453-0.006-4.907-0.001-7.361-0.002
			c-0.764,0-1.526,0-2.287,0c-0.073,0.209-0.131,0.399-0.203,0.583c-0.072,0.185-0.145,0.371-0.24,0.543
			c-0.928,1.699-2.303,2.69-4.297,2.69c-0.994,0-1.987,0.003-2.979,0.003c-0.543,0.001-1.087,0-1.664,0c0-0.335,0-0.637,0-0.957
			c-1.929,0-3.824,0-5.72,0c0-0.637,0-1.272,0-1.908c1.901,0,3.802,0,5.704,0c0-1.612,0-3.183,0-4.77c-1.916,0-3.81,0-5.704,0
			c0-0.635,0-1.272,0-1.908c1.902,0,3.803,0,5.725,0c0-0.342,0-0.648,0-0.954C22.494,14.683,24.262,14.683,26.031,14.683z
			 M23.604,17.546c0,1.603,0,3.176,0,4.767c0.582,0,1.147,0.015,1.711-0.007c0.241-0.01,0.497-0.058,0.718-0.153
			c1.051-0.452,1.605-1.744,1.268-2.904c-0.286-0.981-1.007-1.662-1.85-1.698C24.846,17.525,24.239,17.546,23.604,17.546z"/>
		<path fill="#FFFFFF" d="M34.085,31.645c-0.508,1.276-1.005,2.523-1.516,3.808c0.822,0,1.608,0,2.364,0
			c-2.184,2.182-4.367,4.366-6.528,6.527c0.601-1.807,1.22-3.668,1.85-5.559c-0.65,0-1.254,0-1.904,0
			c0.197-0.497,0.383-0.962,0.568-1.427c0.414-1.04,0.824-2.081,1.246-3.117c0.037-0.092,0.145-0.221,0.22-0.223
			C31.605,31.641,32.827,31.645,34.085,31.645z"/>
		<path fill="#FFFFFF" d="M23.577,44.048c-1.562-0.002-2.852-1.282-2.854-2.836c-0.003-1.626,1.26-2.889,2.887-2.889
			c1.604,0.001,2.844,1.297,2.84,2.968C26.446,42.777,25.12,44.05,23.577,44.048z"/>
		<path fill="#FFFFFF" d="M36.959,38.327c1.61,0.021,2.872,1.304,2.849,2.896c-0.023,1.619-1.325,2.858-2.984,2.821
			c-1.453-0.032-2.8-1.289-2.749-3.002C34.119,39.567,35.433,38.307,36.959,38.327z"/>
	</g>
</g>
</svg>
