<?xml version="1.0" encoding="utf-8"?>
<!-- Generator: Adobe Illustrator 15.0.0, SVG Export Plug-In . SVG Version: 6.00 Build 0)  -->
<!DOCTYPE svg PUBLIC "-//W3C//DTD SVG 1.1//EN" "http://www.w3.org/Graphics/SVG/1.1/DTD/svg11.dtd">
<svg version="1.1" id="Layer_1" xmlns="http://www.w3.org/2000/svg" xmlns:xlink="http://www.w3.org/1999/xlink" x="0px" y="0px"
	 width="60px" height="58.731px" viewBox="0 0 60 58.731" enable-background="new 0 0 60 58.731" xml:space="preserve">
<g>
	<g>
		<path fill-rule="evenodd" clip-rule="evenodd" fill="#FFFFFF" d="M22.063,0c0.421,0.103,0.848,0.187,1.263,0.312
			c3.434,1.041,5.539,3.406,6.684,6.724c0.064,0.187,0.12,0.376,0.188,0.599c2.393,0,4.776,0,7.159,0
			c4.154-0.001,8.308-0.031,12.461,0c5.633,0.043,9.314,4.279,10.074,9.903c0.059,0.432,0.103,0.869,0.104,1.304
			c0.006,11.587,0.005,20.847,0.002,32.435c0,1.336-0.238,2.612-1.068,3.707c-0.936,1.235-2.275,1.692-3.742,1.808
			c-0.906,0.072-1.822,0.014-2.777,0.014c0-1.888,0-3.762,0-5.681c0.601,0,1.189,0,1.801,0c0.028-0.129,0.068-0.221,0.065-0.312
			c-0.074-3.018,0.017-6.05-0.271-9.048c-0.404-4.229-0.856-8.056-3.977-11.096c-2.593-2.523-5.762-3.818-9.313-4.204
			c-3.285-0.357-6.546-0.135-9.739,0.742c-3.976,1.093-6.64,3.752-8.519,7.295c-0.472,0.892-0.86,1.828-1.249,2.761
			c-0.156,0.372-0.358,0.541-0.768,0.608c-4.24,0.697-8.012,2.338-11.041,5.489c-2.08,2.163-2.03,4.714-2.375,7.74
			c0.619,0,1.209,0,1.841,0c0,1.917,0,3.792,0,5.72c-1.457-0.021-2.906,0.14-4.314-0.321c-1.802-0.59-2.784-1.881-3.147-3.698
			c-0.035-0.171-0.09-0.338-0.136-0.508c0-0.834,0-1.669,0-2.504c0.039-0.109,0.084-0.217,0.116-0.328
			c0.345-1.194,0.532-2.465,1.058-3.573c3.094-6.527,7.274-10.063,14.066-11.817c0.468-0.12,0.729-0.298,0.921-0.755
			c1.547-3.661,3.803-6.789,7.133-9.03c5.044-3.395,10.696-4.195,16.58-3.504c5.556,0.653,9.059,3.306,12.72,7.519
			c0.104,0.121,0.231,0.22,0.413,0.389c0-4.063,0.005-5.689-0.008-9.643c-0.001-0.433-0.065-0.874-0.169-1.295
			c-0.648-2.634-1.834-4.386-4.597-4.393c-4.907-0.013-9.815-0.003-14.723-0.004c-1.526,0-3.052,0-4.573,0
			c-0.145,0.419-0.261,0.798-0.406,1.166c-0.144,0.369-0.29,0.741-0.479,1.087c-1.857,3.398-4.606,5.38-8.595,5.38
			c-1.987,0-3.974,0.005-5.96,0.006c-1.087,0.002-2.174,0.001-3.327,0.001c0-0.67,0-1.274,0-1.914c-3.857,0-7.648,0-11.44,0
			c0-1.273,0-2.544,0-3.816c3.802,0,7.604,0,11.408,0c0-3.224,0-6.366,0-9.541c-3.831,0-7.62,0-11.408,0C0,4.453,0,3.18,0,1.908
			c3.804,0,7.606,0,11.449,0c0-0.684,0-1.296,0-1.908C14.987,0,18.525,0,22.063,0z M17.208,5.725c0,3.206,0,6.352,0,9.535
			c1.164,0,2.294,0.03,3.422-0.014c0.483-0.019,0.993-0.115,1.436-0.306c2.101-0.904,3.21-3.489,2.535-5.809
			c-0.572-1.964-2.015-3.324-3.7-3.396C19.692,5.683,18.479,5.725,17.208,5.725z"/>
		<path fill-rule="evenodd" clip-rule="evenodd" fill="#FFFFFF" d="M38.171,33.925c-1.017,2.552-2.01,5.047-3.032,7.614
			c1.645,0,3.216,0,4.728,0c-4.366,4.365-8.734,8.733-13.055,13.055c1.202-3.613,2.44-7.335,3.699-11.117c-1.299,0-2.508,0-3.808,0
			c0.395-0.993,0.766-1.923,1.136-2.853c0.828-2.08,1.649-4.162,2.492-6.235c0.075-0.184,0.29-0.442,0.44-0.444
			C33.212,33.916,35.654,33.925,38.171,33.925z"/>
		<path fill-rule="evenodd" clip-rule="evenodd" fill="#FFFFFF" d="M17.154,58.731c-3.125-0.003-5.704-2.564-5.709-5.671
			c-0.006-3.252,2.52-5.779,5.775-5.778c3.208,0.002,5.688,2.593,5.681,5.935C22.892,56.189,20.24,58.735,17.154,58.731z"/>
		<path fill-rule="evenodd" clip-rule="evenodd" fill="#FFFFFF" d="M43.918,47.289c3.221,0.042,5.745,2.608,5.698,5.794
			c-0.048,3.238-2.65,5.717-5.97,5.643c-2.905-0.066-5.599-2.579-5.497-6.005C38.238,49.769,40.865,47.249,43.918,47.289z"/>
	</g>
</g>
</svg>
